<svg id="Слой_1" data-name="Слой 1" xmlns="http://www.w3.org/2000/svg" viewBox="0 0 600 600"><title>happy-broiler-logo2</title><path d="M600,300.74c0,.62,0,1.25,0,1.87,0,1.71,0,3.43-.09,5.13a2.17,2.17,0,0,1,0,.26c-3.68,140.64-104.14,257.18-237.25,285.44h0A302,302,0,0,1,219,588.94C93.1,553.74.62,438.42,0,301.39c0-.46,0-.93,0-1.39A298.8,298.8,0,0,1,70.82,106.41l.16-.18A300,300,0,0,1,535.39,114c.37.46.74.92,1.09,1.39.53.68,1.07,1.36,1.58,2a298.4,298.4,0,0,1,60.39,151.89c.11,1.09.22,2.17.31,3.27.14,1.42.25,2.84.36,4.27s.21,3,.3,4.46c.08,1.3.15,2.6.21,3.91q.27,5.28.33,10.59C600,297.46,600,299.1,600,300.74Z" style="fill:#1a1a1a"/><path d="M219,588.94C93.1,553.74.62,438.42,0,301.39a304.64,304.64,0,0,1,10.28-76.52v0A318.18,318.18,0,0,1,70.82,106.41l.16-.18A300.57,300.57,0,0,1,182.66,23.82c-6.69,7.38-15.75,17.69-26,30.39-2.94,3.62-5.69,7-8.28,10.26l-.05.06c-18.14,22.6-28.6,36.69-38.09,57.53C100.09,144.32,96,163.43,92.92,177.75a334.45,334.45,0,0,0-7.29,61.78c-.9,36.94,4.56,64.66,9.11,87.09a472.63,472.63,0,0,0,20.05,69.88c6.66,18.41,12.89,32.44,19.52,46.75,1.37,3,2.75,5.93,4.16,8.94,11.61,24.82,22.7,45.59,31.89,61.78l.48.84.17.3c1.9,3.29,7.77,13.42,15.64,26.11l.12.2c6.57,10.6,14.53,23,22.73,34.65,3.74,5.31,7.39,10.1,7.39,10.1C217.62,587.12,218.33,588,219,588.94Z" style="fill:#4b7334"/><path d="M600,300.74c0,.62,0,1.25,0,1.87l0,1.49c0,1.22,0,2.43-.06,3.64a2.17,2.17,0,0,1,0,.26c-3.68,140.64-104.14,257.18-237.25,285.44q4.73-2.73,9.8-6,3.19-2,6.49-4.26,2.2-1.49,4.44-3.06l.28-.21,2.21-1.58.93-.69,1-.77.88-.65c1.49-1.13,3.21-2.45,5.13-4l1.85-1.48c.78-.62,1.58-1.27,2.4-2l.84-.69a351,351,0,0,0,39.63-38.75c3.28-3.76,6.77-7.76,10.4-12.2.29-.34.56-.67.83-1,.15-.17.29-.35.43-.53l.74-.92c1.46-1.84,3-3.76,4.46-5.76.25-.34.51-.67.76-1,3.29-4.42,6.65-9.28,10.05-14.69l.93-1.49c.62-1,1.24-2,1.87-3.08l.93-1.57.93-1.61c2.53-4.37,4.78-8.59,6.82-12.66h0c.58-1.17,1.15-2.32,1.7-3.46s1.07-2.27,1.59-3.39a338.75,338.75,0,0,0,12.55-32.34c11.85-34.3,16.26-62.1,19-79.78.65-4.2,2.27-15.07,3.7-30.61q.12-1.36.24-2.79c.09-.94.17-1.9.25-2.88.27-3.42.55-7,.78-10.81.08-1.07.14-2.17.2-3.27s.13-2.24.19-3.37q.18-3.4.33-7c0-1.18.09-2.38.14-3.58q.12-3.63.22-7.4c0-1.26,0-2.52.07-3.79h0c0-1.28.05-2.56.05-3.86,0-.64,0-1.31,0-2,.06-7.38,0-14.32-.21-20.72,0-1.48-.09-2.92-.13-4.34-.1-2.84-.22-5.57-.35-8.15-.09-1.94-.2-3.8-.3-5.58h0c-.07-1.18-.15-2.34-.21-3.45s-.14-2.2-.22-3.25c-.19-2.6-.37-5-.54-7.06-.11-1.27-.21-2.44-.31-3.51s-.19-2-.28-2.91c0-.3,0-.57-.08-.84-1.44-14.64-3.27-27.23-5-37.71-.2-1.16-.39-2.29-.59-3.41l-.3-1.65q-.29-1.62-.57-3.18c-.09-.52-.19-1-.28-1.53-.27-1.51-.55-3-.82-4.35-.09-.47-.18-.93-.26-1.37-.35-1.81-.69-3.51-1-5.1,0-.19-.07-.37-.11-.53a1.8,1.8,0,0,0-.06-.32l-.06-.31A2.82,2.82,0,0,0,507,153l-.19-.86c0-.12-.05-.26-.09-.41l-.16-.7a2.29,2.29,0,0,1-.07-.28c0-.18-.09-.37-.14-.59s-.1-.45-.17-.69-.06-.25-.09-.38-.13-.54-.2-.85c0-.14-.07-.29-.11-.46q-.12-.48-.24-1c-.14-.55-.29-1.14-.44-1.79-.07-.33-.15-.67-.25-1l-.26-1.12c-.06-.25-.13-.52-.19-.8,0-.13-.07-.26-.1-.4-.06-.29-.14-.58-.21-.87s-.15-.59-.22-.91c-.14-.62-.3-1.28-.47-2s-.34-1.41-.52-2.17c-.5-2.08-1.06-4.44-1.7-7.1-1.74-7.27-4-16.86-7.06-29.59l-1.78-7.47C489.81,81.22,487.7,72.79,485,64a312.38,312.38,0,0,1,50.36,50c.37.46.74.92,1.09,1.39a292.37,292.37,0,0,1,62,153.93c.11,1.09.22,2.17.31,3.27.14,1.42.25,2.84.36,4.27s.21,3,.3,4.46q.44,7.17.54,14.5C600,297.46,600,299.1,600,300.74Z" style="fill:#4b7334"/><path d="M187,515l.53.83c-10.18-15.25-9.9-14.75-11.38-17.18a517.48,517.48,0,0,1-27.65-51.18c-.32-.68-.68-1.45-1.07-2.3,1.5,2.92,3,5.85,4.57,8.83C164.74,478.51,176.92,499,187,515Z" style="fill:#1a1a1a"/><path d="M458.18,487.86c2.77-4.28,5.25-8.41,7.49-12.4-2.23,4-4.71,8.12-7.48,12.41-.34.53-.69,1.05-1,1.57C457.5,488.92,457.84,488.39,458.18,487.86Z" style="fill:#1a1a1a"/><path d="M465.67,475.45q1-1.71,1.86-3.39C466.93,473.18,466.32,474.31,465.67,475.45Z" style="fill:#1a1a1a"/><path d="M508.57,227.83c.19,2.06.4,4.37.6,6.92Q508.85,230.93,508.57,227.83Z" style="fill:#1a1a1a"/><path d="M509.64,241.31c-.08-1.16-.16-2.29-.23-3.38C509.49,239,509.57,240.15,509.64,241.31Z" style="fill:#1a1a1a"/><path d="M509.64,241.32q.18,2.61.33,5.46C509.87,244.88,509.75,243.06,509.64,241.32Z" style="fill:#1a1a1a"/><path d="M291.56,374.5H241.18V298.63H181.71V374.5H131.32v-189h50.39v68.58h59.47V185.5h50.38Z" style="fill:#fff"/><path d="M468.05,276.22c15.69,7.83,23.13,21.87,23.13,38.61-.28,32.94-20.65,59.67-60,59.67H340.85v-189h82.32c33.32,0,60,25.38,60,58.05C483.19,254.89,477.41,268.66,468.05,276.22ZM388.48,228.7v31.05h31.11c19.55,0,19.55-31.05-.27-31.05Zm0,70.74v32.13h39.37c19.83,0,19.55-32.13-.27-32.13Z" style="fill:#fff"/></svg>