<svg xmlns="http://www.w3.org/2000/svg" viewBox="0 0 600 600.3"><title>happy-broiler-logo</title><path d="M523.2,559.3s-54.8,5.9-68.3,1.4c-.5-.1-2.1-.7-2.8,0-2.3,2.3,9.7,13.8,6.9,17.8s-12.5,1-19.5-2.7c-3.9-2.1-3.5-3-8-5.4h-.4a31.6,31.6,0,0,0-8.7-3.2,20.2,20.2,0,0,1-5.2-2.3c-6-3.6-6-6.5-9.8-6.8s-5.1,2.4-11.1,5.4c-3.4,1.8-6.5,2.6-12.6,4.1l-5,1.2c-9.9,2-16.7,1.3-42.4,2.9-3.6.3-10.4.8-11.1-1.3s.6-2,1.4-2.8c8.1-8.5,12.1-12.8,19.5-15,3.4-1,6.9-1.4,7-2.7s-.5-.9-2.8-2.8-4-3.6-4.2-4.1c-.8-2.1.8-4.5,1.4-5.4,4-6,11.5-5.9,22.3-11,6.7-3.1,10-4.7,12.5-8.2,4.1-5.6,3.3-12.5,1.4-26-1.5-11.1-2.7-19.5-6.9-27.3a109.3,109.3,0,0,1-7-15.1,37.5,37.5,0,0,1-1.4-4.1c-.8-3-.4-5.3-1.4-8.2a10.9,10.9,0,0,0-1.4-2.7c-3.2-4.5-21.3,2.1-27.9,4.1-23.2,7.2-58.9,6.4-80.9-4.1-3.2-1.6-10.1-5.2-16.7-2.7-3,1.1-4.9,3.1-11.1,13.6s-10.2,17.1-15.4,28.8c-1.2,2.7-2.7,6.4-5.6,13.6-4.4,11.1-6,15.8-5.5,21.9a21.6,21.6,0,0,0,1.4,6.9,25.8,25.8,0,0,0,8.3,10.9c6.6,5.6,11.6,8.3,18.1,12.3,0,0,14.7,8.1,18.2,13.7a8.6,8.6,0,0,1,1.1,2.4c.4,1.7-.1,2.2.3,3s2.2,1.3,5.7,2.9a13.4,13.4,0,0,1,5.4,4,7.8,7.8,0,0,1,1.4,2.7c-.3,0-14.6,1.4-26.5,1.4l-8.9-.7h-1.3l-21.8-2c-5.6-.4-14.5-1.2-26.5-1.3h-4.2c-2.2,0-5.6.1-9.9.5h0a101.2,101.2,0,0,0-22.2,4.9l-11.2,4.2c-4.6,1.6-6.7,2.4-9.7,2.7-1.4.1-8.8.9-9.8-1.4s16.8-12.4,15.4-16.4c-.9-2.3-7.5-1.1-22.4-1.4-18.3-.3-24-2.3-26.7-4.4-.4-.3-1.1-.5-1.1-1s3.1-2.4,4.1-2.8c12.2-4.4,34.2-7.7,43.3-9l4.2-.5,8.5-1.3h0c13.3-2.4,32.1-7.6,38.9-19.3,3.8-6.5,2.2-10.3,4-21.5h0l.3-1.5c.6-3.1,1.4-6.8,2.6-11.1s1.8-4.9,4.2-11.9c.4-1.1,2.8-8.1,4.2-12.7,2.3-7.6,5.9-19.7,4.2-34.2-.7-5.9-1-8.8-2.8-12.3-5.4-10.8-16.7-13.3-25.1-17.8-14.9-7.9-21.1-21.9-29.3-39.7-3.6-8-10.3-25.2-8.3-65.6,2.5-52.7,4.3-90,33.4-116.2,11.1-10,32-22.2,51.6-24.7a149.4,149.4,0,0,1,16.7-1.3c15.1-.2,20.7,2.8,29.3,0,6.4-2.1,10.2-5.9,14-9.6,0,0,18.9-18.6,23.7-56.1a72.4,72.4,0,0,1,5.6-20.5c1.5-3.5,15.4-34.9,39-38.3,6-.8,12.4.2,15.3-4.1a3.7,3.7,0,0,0,.9-1.9c.8-3.1-1.2-6.2.5-10.4,3.4-8,17.5-12.5,25.1-8.2a12.3,12.3,0,0,1,4.2,4.1c8.4,13,14.7,22.8,18.4,30.5h0c4.1,8.3,5.1,14.1,2.5,18.7,0,0-.2.4-6.9,9.6,6.6,11.1,6.9,15.1,6.9,15.1.3,2.4-.2,2.5,0,6.8s.9,5.8,0,6.8-9.7,0-9.7,0-3.6,11.1-5.6,19.2c-2.9,11.9-7,28.9,1.4,36.9a12.2,12.2,0,0,0,4.2,2.7s8.1,4,44.6,24.7c13.1,7.4,24.5,13.8,33.5,25.9,12.3,16.6,13.2,34.5,13.9,47.9,1.9,35.6-12.8,67.4-22.3,71.1-1.2.5-7.3,2.4-8.4,6.8a8.2,8.2,0,0,0,0,2.8c.4,1.6.3,9.3,0,24.6-.4,29.7-16.7,46.5-16.7,46.5-16.6,14.1-28.4,24.7-30.7,27.3-.6.8-.4.7-2.8,4.1a6.7,6.7,0,0,0-1.4,4h0c1.6,16.9-4.4,58.1,18.2,86.2l1.1,1.4c3.7,4.4,9.8,11.2,19.8,15l4.8,1.5c6,1.4,11.7,1.3,18.9,1.2l6.9-.2c7.3-.5,15.5-1.2,26.6-1.1a21.6,21.6,0,0,1,11.1,2.7c1.5.9,5.6,3.3,7,8.2A13.8,13.8,0,0,1,523.2,559.3Z" transform="translate(0 0.3)" style="fill:#ccc"/><path d="M247,595.3l-1.5-.2h0A303.9,303.9,0,0,1,162.1,567h0l-4.9-2.6a297.7,297.7,0,0,1-35.3-22C48.9,489.5,1.2,405,0,309.5v-3.6a272.3,272.3,0,0,1,11.3-77.4h0C30.4,163.8,72.2,108.1,123.8,69.7a301,301,0,0,1,59-34.5c6.3-2.7,12.5-5.2,18.6-7.3h0l1.9-.7A319.2,319.2,0,0,0,171.9,60a347.7,347.7,0,0,0-41.4,65.9c-6.6,13.4-14.2,29.3-19.9,51.7s-6.5,40.1-7.2,55.9c-1.5,35.9,2.7,63.3,5.4,80.6a504.6,504.6,0,0,0,19.3,77.7,489.1,489.1,0,0,0,21.6,54.7,521.1,521.1,0,0,0,27.7,51.2l.3.6c1.7,2.7,2.2,3.2,30.9,46.4,6.6,9.9,11.7,17.7,17.3,25.2,3.7,5,7.5,9.9,12.2,15.4C241.3,589.1,244.3,592.5,247,595.3Z" transform="translate(0 0.3)" style="fill:#4b7334"/><path d="M600,305.9v3.3c-1.1,95.9-49.1,180.8-122.6,233.7-8,5.8-16.4,11.2-24.9,16.2-6.2,3.5-12.4,6.9-18.8,10l-3.4,1.6-.4.2c-7.2,3.4-14.5,6.5-22,9.3a286.3,286.3,0,0,1-29.3,9.5h-.3l-11,2.7-5.6,1.2c-6,1.2-12,2.3-18.2,3.1s-11.3,1.5-17,2A317.9,317.9,0,0,0,362,579.6c2.5-1.6,8-5.1,15.6-10.6a373.3,373.3,0,0,0,45.1-39.2l4.2-4.3a246.2,246.2,0,0,0,31.3-38.6c12.7-19.6,19.1-36,24.9-50.8,13-33.6,17.8-60.9,20.8-78.2,1.4-7.7,6.5-38.6,6.8-79.6a499.9,499.9,0,0,0-2.9-58.6,499.9,499.9,0,0,0-9.7-57.1c-.9-3.9-.3-1.1-14.5-54.3-3.6-13.6-6.3-23.7-9.9-34.3C544.8,124.1,600,203,600,305.9Z" transform="translate(0 0.3)" style="fill:#4b7334"/><path d="M510.7,278.3c-.3,41-5.4,71.9-6.8,79.6-3,17.3-7.8,44.6-20.8,78.2-5.8,14.8-12.2,31.2-24.9,50.8s-25,32.3-35.5,43c-28.6,29-54.4,45.7-60.7,49.7a317.9,317.9,0,0,1-35.5,19.2c-2.8.3-5.5.5-8.3.6-6.2.4-12.5.6-18.8.6a314.9,314.9,0,0,1-47.9-3.7l-5.7-1-.3-.2c-2.6-2.9-5.5-6.1-8.6-9.8-11.5-13.5-18.5-24-29.5-40.6-30.6-46.1-29.1-43.6-31.2-47.1a505.4,505.4,0,0,1-27.7-51.1,489.1,489.1,0,0,1-21.6-54.7,492.1,492.1,0,0,1-19.3-77.7c-2.7-17.3-6.9-44.7-5.4-80.6.7-15.9,1.5-33.3,7.2-55.9s13.3-38.3,19.9-51.7C147,89.5,166.1,65.6,170.7,60a304.8,304.8,0,0,1,30.7-32.1l.7-.7,3.7-1.2c41.6-13.8,76.2-14.6,89.4-14.4h4.2A293,293,0,0,1,370.5,24a355,355,0,0,1,84,37.4q9.8,6,19.2,12.6c3.6,10.6,6.3,20.7,9.9,34.3,14.2,53.2,13.6,50.4,14.5,54.3a499.9,499.9,0,0,1,9.7,57.1A499.9,499.9,0,0,1,510.7,278.3Z" transform="translate(0 0.3)" style="fill:#1a1a1a"/><path d="M157.2,564.4a297.7,297.7,0,0,1-35.3-22C48.9,489.5,1.2,405,0,309.5v-.2a325.6,325.6,0,0,1,11.3-80.8h0C30.4,163.8,72.2,108.1,123.8,69.7c3.2-1.8,6.4-3.5,9.6-5A260.6,260.6,0,0,0,112.8,94c-10.4,17.2-18.4,34.2-27.2,58.8-12.8,35.7-23.7,66-28.6,109-4.6,40.2-1.7,72,0,89.5a359.9,359.9,0,0,0,7.2,48.2,332.4,332.4,0,0,0,45.6,108.3,322.6,322.6,0,0,0,24.7,32.8h0A326.8,326.8,0,0,0,157.2,564.4Z" transform="translate(0 0.3)" style="fill:#4b8834"/><path d="M600,309.2c-1.1,95.9-49.1,180.8-122.6,233.7-8,5.8-16.4,11.2-24.9,16.2-6.2,3.5-12.4,6.9-18.8,10l-3.4,1.6-.4.2c-7.2,3.4-14.5,6.5-22,9.3-3.4,1.2-7.3,2.4-7.7,1.7s10.5-7.7,21-14.6l5.6-3.7A154.9,154.9,0,0,0,451.6,542a287.9,287.9,0,0,0,19.3-23.8c16.5-21.8,24.9-40.1,34.9-62.2a451,451,0,0,0,21.6-57.7A401.2,401.2,0,0,0,543,321.8c1.7-16.6,4.1-42.5,0-74.1a344.7,344.7,0,0,0-10.8-50.6c-2.1-6.9-2.1-6.4-4.8-15.3-3.7-12.3-6-21.7-12.1-48.1l-7.2-31.3C558.9,147.3,598.6,217.6,600,309.2Z" transform="translate(0 0.3)" style="fill:#4b8834"/><path d="M523.2,559.6s-54.8,5.9-68.3,1.4c-.5-.2-2.1-.7-2.8,0-2.3,2.3,9.7,13.7,6.9,17.8s-12.5,1-19.5-2.8c-3.9-2-3.5-2.9-8-5.3h-.4a36.7,36.7,0,0,0-8.7-3.3,19.5,19.5,0,0,1-5.2-2.2c-6-3.6-6-6.6-9.8-6.9s-5.1,2.4-11.1,5.5c-3.4,1.8-6.5,2.5-12.6,4.1l-5,1.2c-9.9,1.9-16.7,1.2-42.4,2.9-3.6.3-10.4.7-11.1-1.3s.6-2,1.4-2.8c8.1-8.6,12.1-12.8,19.5-15,3.4-1,6.9-1.5,7-2.8s-.5-.8-2.8-2.7-4-3.6-4.2-4.1c-.8-2.1.8-4.5,1.4-5.5,4-6,11.5-5.8,22.3-10.9,6.7-3.2,10-4.7,12.5-8.2,4.1-5.6,3.3-12.5,1.4-26-1.5-11.1-2.7-19.6-6.9-27.3a115,115,0,0,1-7-15.1,37.5,37.5,0,0,1-1.4-4.1c-.8-3.1-.4-5.4-1.4-8.2a9.4,9.4,0,0,0-1.4-2.7c-3.2-4.5-21.3,2-27.9,4.1-23.2,7.2-58.9,6.4-80.9-4.1-3.2-1.6-10.1-5.2-16.7-2.8-3,1.2-4.9,3.2-11.1,13.7s-10.2,17-15.4,28.7c-1.2,2.8-2.7,6.4-5.6,13.7-4.4,11-6,15.7-5.5,21.9a20,20,0,0,0,1.4,6.8c1.9,5.2,5.3,8.4,8.3,11,6.6,5.5,11.6,8.2,18.1,12.3,0,0,14.7,8,18.2,13.6a9.9,9.9,0,0,1,1.1,2.5c.4,1.6-.1,2.2.3,3s2.2,1.3,5.7,2.9a14,14,0,0,1,5.4,3.9,9,9,0,0,1,1.4,2.8c-.3,0-14.6,1.3-26.5,1.4l-8.9-.7-1.3-.2-21.8-1.9c-5.6-.5-14.5-1.3-26.5-1.4h-4.2c-2.2.1-5.6.2-9.9.6h0a95.7,95.7,0,0,0-22.2,4.9L129.9,576c-4.6,1.7-6.7,2.4-9.7,2.8-1.4.1-8.8.8-9.8-1.4S127.2,565,125.8,561c-.9-2.3-7.5-1.1-22.4-1.4-18.3-.3-24-2.3-26.7-4.5-.4-.3-1.1-.5-1.1-1s3.1-2.3,4.1-2.7c12.2-4.5,34.2-7.8,43.3-9l4.2-.6c2.3-.2,5.2-.7,8.5-1.2h0c13.3-2.4,32.1-7.7,38.9-19.3,3.8-6.5,2.2-10.3,4-21.5h0l.3-1.5c.6-3.1,1.4-6.8,2.6-11.2s1.8-4.8,4.2-11.8c.4-1.2,2.8-8.1,4.2-12.8,2.3-7.5,5.9-19.6,4.2-34.2-.7-5.8-1-8.7-2.8-12.3-5.4-10.7-16.7-13.3-25.1-17.7-14.9-8-21.1-22-29.3-39.7-3.6-8-10.3-25.2-8.3-65.6,2.5-52.7,4.3-90,33.4-116.3,11.1-9.9,32-22.1,51.6-24.6,10.4-1.3,16.7-1.4,16.7-1.4,15.1-.1,20.7,2.9,29.3,0,6.4-2,10.2-5.8,14-9.5,0,0,18.9-18.7,23.7-56.1a71.5,71.5,0,0,1,5.6-20.5c1.5-3.6,15.4-34.9,39-38.3,6-.9,12.4.1,15.3-4.1a4.6,4.6,0,0,0,.9-1.9c.8-3.1-1.2-6.2.5-10.4,3.4-8.1,17.5-12.5,25.1-8.2a10.8,10.8,0,0,1,4.2,4.1c8.4,12.9,14.7,22.8,18.4,30.5h0c4.1,8.3,5.1,14.1,2.5,18.7,0,0-.2.4-6.9,9.6,6.6,11.1,6.9,15,6.9,15,.3,2.5-.2,2.5,0,6.9s.9,5.8,0,6.8-9.7,0-9.7,0-3.6,11-5.6,19.2c-2.9,11.9-7,28.9,1.4,36.9a16.2,16.2,0,0,0,4.2,2.7s8.1,3.9,44.6,24.6c13.1,7.4,24.5,13.9,33.5,26,12.3,16.6,13.2,34.5,13.9,47.9,1.9,35.6-12.8,67.4-22.3,71.1-1.2.4-7.3,2.4-8.4,6.8a7.5,7.5,0,0,0,0,2.7c.4,1.7.3,9.3,0,24.7-.4,29.7-16.7,46.5-16.7,46.5-16.6,14-28.4,24.7-30.7,27.3-.6.8-.4.7-2.8,4.1a6.4,6.4,0,0,0-1.4,3.9v.2c1.6,16.9-4.4,58.1,18.2,86.2l1.1,1.4c3.7,4.4,9.8,11.2,19.8,15a44.2,44.2,0,0,0,4.8,1.5c6,1.4,11.7,1.3,18.9,1.2l6.9-.3c7.3-.4,15.5-1.1,26.6-1.1a20.9,20.9,0,0,1,11.1,2.8c1.5.9,5.6,3.3,7,8.2A13.8,13.8,0,0,1,523.2,559.6Z" transform="translate(0 0.3)" style="fill:#b3b3b3"/><path d="M185.8,227.5c10.4-18.9,19-28.4,25.8-28.4,1.8,0,3.3,1,4.4,3s2,6.5,2.8,13.4,2.2,12.7,4.7,16c1.3,1.7,1.9,2.9,1.9,3.7a2.6,2.6,0,0,1-1.2,2,4.8,4.8,0,0,1-2.7.9c-2.2,0-4.2-1.2-5.9-3.6s-2.7-6.7-3.2-12.7a76.8,76.8,0,0,0-1.5-11.3c-.6-1.8-1.5-2.6-2.7-2.6-2.9,0-8.9,7.5-17.8,22.7a73.4,73.4,0,0,1-5.9,8.8c-1.3,1.4-2.5,2.1-3.5,2.1a4.6,4.6,0,0,1-3.1-1,3.4,3.4,0,0,1-1.3-2.7,23.4,23.4,0,0,1,.7-4.5c3.4-17.5,6.2-34.8,8.2-51.9.4-4,1.1-6.7,2.1-8s1.9-2,2.5-2a4.3,4.3,0,0,1,3.3,1.5,5.2,5.2,0,0,1,1.5,4c0,5-1.2,12-3.8,20.9-1.2,4.3-2.5,9.9-3.9,16.7s-2.1,10.9-2.1,12.5a.5.5,0,0,0,.5.5Z" transform="translate(0 0.3)"/><path d="M261.4,224.9a55.3,55.3,0,0,1-11.7,11.6c-3.9,2.6-7.4,3.9-10.6,3.9a7.2,7.2,0,0,1-5.6-2.7,10,10,0,0,1-2.4-6.9c0-7.2,3.3-15.1,9.9-23.4s13.2-12.6,19.7-12.6c2.4,0,4.1,1.3,5.3,4,.4.9.9,1.3,1.7,1.3,2.3,0,3.4.9,3.4,2.6a18.5,18.5,0,0,1-.4,3.5c-1.5,8.1-2.3,13.9-2.3,17.2q0,10,3.9,12,1.8,1,1.8,2.4a3.3,3.3,0,0,1-1.8,2.6,5.6,5.6,0,0,1-3.5,1.3c-2.1,0-3.9-1.4-5.3-4.4S261.4,230.3,261.4,224.9Zm-2.6-23.3c-3.7,0-8,3.4-13,10.2s-7.3,12.5-7.3,17,1,4.7,3.2,4.7,7.3-3,12.8-9.1,8.3-11.8,8.3-16.9S261.4,201.6,258.8,201.6Z" transform="translate(0 0.3)"/><path d="M291.8,235.1a159.1,159.1,0,0,0-3.9,20.9l-1.2,7.8a8.1,8.1,0,0,1-1.5,3.3c-.9,1.1-1.7,1.6-2.4,1.6a4.8,4.8,0,0,1-2.9-1.3c-1.1-.8-1.7-1.5-1.7-2a21.9,21.9,0,0,1,1.1-6.3q7.6-30.6,7.7-53.7v-3.5c0-3,.5-5.1,1.6-6.5a4.9,4.9,0,0,1,3.9-2c.7,0,1.3.5,2,1.5a9,9,0,0,1,.9,4.4,65.7,65.7,0,0,1-.9,9.8c-.7,4.8-1.1,7.5-1.1,8.2,4.2-7.1,8.6-12.7,13.3-16.8s9.1-6,13.1-6a9.5,9.5,0,0,1,7.2,3.1,10.8,10.8,0,0,1,2.9,7.8c0,9-3.5,17.1-10.5,24.5s-13.9,11-20.6,11a5.6,5.6,0,0,1-3.9-1.3A12.4,12.4,0,0,1,291.8,235.1ZM318,201.8c-4,0-8.9,3.7-14.7,10.9s-8.8,13-8.8,17a3.9,3.9,0,0,0,1.7,2.9,6.5,6.5,0,0,0,4.4,1.4c4,0,8.6-2.9,13.9-8.7s7.8-11.6,7.8-17.2a8,8,0,0,0-1.2-4.7A4.1,4.1,0,0,0,318,201.8Z" transform="translate(0 0.3)"/><path d="M347.6,235.1a181.4,181.4,0,0,0-3.8,20.9l-1.2,7.8a7.2,7.2,0,0,1-1.6,3.3,3.2,3.2,0,0,1-2.3,1.6,4.8,4.8,0,0,1-3-1.3c-1.1-.8-1.6-1.5-1.6-2a25.1,25.1,0,0,1,1-6.3c5.2-20.4,7.7-38.3,7.7-53.7v-3.5c-.1-3,.5-5.1,1.6-6.5a4.7,4.7,0,0,1,3.9-2c.6,0,1.3.5,1.9,1.5a9,9,0,0,1,.9,4.4,63.9,63.9,0,0,1-.8,9.8c-.7,4.8-1.1,7.5-1.1,8.2a65.7,65.7,0,0,1,13.3-16.8c4.7-4,9-6,13.1-6a9.5,9.5,0,0,1,7.2,3.1,11.2,11.2,0,0,1,2.9,7.8c0,9-3.5,17.1-10.6,24.5s-13.8,11-20.5,11a5.3,5.3,0,0,1-3.9-1.3A13.7,13.7,0,0,1,347.6,235.1Zm26.2-33.3c-3.9,0-8.8,3.7-14.7,10.9s-8.8,13-8.8,17a3.8,3.8,0,0,0,1.8,2.9,6.3,6.3,0,0,0,4.4,1.4q6,0,13.8-8.7c5.3-5.8,7.9-11.6,7.9-17.2a7.3,7.3,0,0,0-1.3-4.7A3.8,3.8,0,0,0,373.8,201.8Z" transform="translate(0 0.3)"/><path d="M426.5,225.3a72.2,72.2,0,0,1-13.6,9.6q-5.8,3-9,3a7.1,7.1,0,0,1-6.4-3.4,14,14,0,0,1-2.2-7.9,58.5,58.5,0,0,1,2.6-15.8q2.7-9.3,3.9-11.1a4.8,4.8,0,0,1,4.1-1.8,2.3,2.3,0,0,1,2,1.4,6.2,6.2,0,0,1,.7,3.1,6,6,0,0,1-.9,2.7c-1.5,2.6-2.3,4-2.4,4.3l-1.6,5a25,25,0,0,0-1.6,8.6,26.2,26.2,0,0,0,.7,4.3c.5,2,1.5,3,2.9,3a13.9,13.9,0,0,0,5.7-1.4,33.7,33.7,0,0,0,7.7-4.5,28.1,28.1,0,0,0,5.7-5.1,11.9,11.9,0,0,0,2.1-4.4,71,71,0,0,0,.9-10.8c.2-5.5,1.5-8.2,4.1-8.2s2.5.3,2.9,1.1.7,2.3.7,4.5a62.1,62.1,0,0,1-.4,6.8c-.3,3.5-.5,6-.6,7.4a151.3,151.3,0,0,1-3,22.9,62.6,62.6,0,0,1-7,19.2c-3.1,5.1-7.4,7.7-12.8,7.7a25.6,25.6,0,0,1-14.7-4.3c-4.3-2.8-6.5-5.2-6.5-7.1a6.8,6.8,0,0,1,.7-2.7,2,2,0,0,1,1.7-1.4c.3,0,.7.3,1.1.8,3.6,5.6,9.4,8.4,17.3,8.4,4.1,0,7.5-3.6,10.3-10.6a61.4,61.4,0,0,0,4.6-19.7C426.2,227.7,426.4,226.5,426.5,225.3Z" transform="translate(0 0.3)"/><path d="M179.5,318a52.8,52.8,0,0,1,12.9-15.6c5-4,9.5-5.9,13.5-5.9a7.1,7.1,0,0,1,5.7,3,11.8,11.8,0,0,1,2.3,7.3c0,8.6-3.3,16.7-9.9,24.2s-13.6,11.2-20.9,11.2a10.6,10.6,0,0,1-5.5-1.5,5.5,5.5,0,0,1-2.8-4,4.1,4.1,0,0,0-1.2-2.9,5.4,5.4,0,0,1-1.8-3.8c0-2.5.7-7.9,2.1-16.1l4.4-24.8c1.5-8.3,2.6-13.4,3.2-15.4a9.7,9.7,0,0,1,2.3-3.9,4.9,4.9,0,0,1,3.2-1c1.9,0,2.9,1.7,2.9,5s-1.1,7.6-3.2,13.3S182.2,302.9,179.5,318Zm-1.1,13.8c1.5,2.7,3.3,4,5.4,4s6.6-1.3,10.1-3.9a32,32,0,0,0,9.3-11q3.9-7,3.9-12a8.4,8.4,0,0,0-.8-3.7c-.5-1.1-1.2-1.6-2-1.6-3.9,0-8.7,3.1-14.4,9.4S180.5,325.6,178.4,331.8Z" transform="translate(0 0.3)"/><path d="M230.5,325.2a19,19,0,0,0,1.1-2.1,70.4,70.4,0,0,1,5.2-10.1,61.2,61.2,0,0,1,5.3-7,30.4,30.4,0,0,1,5.3-5.1,14.6,14.6,0,0,1,4.3-2.4,10.6,10.6,0,0,1,3.8-.7,8.8,8.8,0,0,1,6,2.1,7.1,7.1,0,0,1,2.3,5.1,3.8,3.8,0,0,1-.8,2.3,3.1,3.1,0,0,1-2.5,1.1,4.4,4.4,0,0,1-3.3-1.6,4.5,4.5,0,0,0-3.2-1.5c-2.9,0-6.9,3.5-12.1,10.4a49.6,49.6,0,0,0-9.5,23c-.2,2.1-.8,3.6-1.6,4.3a5.2,5.2,0,0,1-3.3,1q-2.1,0-3-3t-.9-10.2c0-1.3.1-4.2.2-8.6a115,115,0,0,1,1-12.6c.1-.5.2-1.7.4-3.7a19.3,19.3,0,0,1,.8-4.4,5.4,5.4,0,0,1,1.8-2.3,4.8,4.8,0,0,1,3-1.1,2.6,2.6,0,0,1,2.3,1,3.2,3.2,0,0,1,.8,2.1,16.7,16.7,0,0,1-.9,4.5,44,44,0,0,0-1.1,4.5,17.1,17.1,0,0,1-.5,3,81,81,0,0,0-.8,9.3v2.7Z" transform="translate(0 0.3)"/><path d="M278.3,343.7a12.3,12.3,0,0,1-9.5-4.3,15.8,15.8,0,0,1-3.7-10.7c0-7.1,2.4-14.1,7.3-21s10.7-10.4,17.5-10.4a13.6,13.6,0,0,1,11,5.1,18.8,18.8,0,0,1,4.1,12.1c0,7.2-2.8,13.8-8.6,20S284.6,343.7,278.3,343.7Zm-5.8-16.1a12.2,12.2,0,0,0,1.8,6.9,5.5,5.5,0,0,0,4.7,2.6c4.2,0,8.4-2.2,12.6-6.7s6.4-9.6,6.4-15.1a12.5,12.5,0,0,0-2.5-8.2,7.8,7.8,0,0,0-6.5-3.2c-4.5,0-8.4,2.7-11.6,8.2S272.5,322.7,272.5,327.6Z" transform="translate(0 0.3)"/><path d="M322.9,332.4a32.1,32.1,0,0,0,.9,7.1,7.4,7.4,0,0,1,.2,1.2c0,.5-.5,1.2-1.4,1.9a4.4,4.4,0,0,1-3,1.2c-2.7,0-4-2.4-4-7.3s1-13.1,3.2-24.1a66.5,66.5,0,0,0,1.1-7.1,9.9,9.9,0,0,1,.9-4.4,3.1,3.1,0,0,1,2.8-1.9,6,6,0,0,1,3.4,1,3.1,3.1,0,0,1,1.2,2.3,12.9,12.9,0,0,1-.6,3.3,142.3,142.3,0,0,0-3.9,15.6A71.6,71.6,0,0,0,322.9,332.4Zm5.6-46.2c-.6,0-1.1-.6-1.4-1.9a11.2,11.2,0,0,0-.5-1.3,12.7,12.7,0,0,1-1.1-4.6,4.8,4.8,0,0,1,2-3.4,6.8,6.8,0,0,1,4.5-1.7,5.4,5.4,0,0,1,2.7.9q1.5.9,1.5,1.8a16.5,16.5,0,0,1-1,4.6,7.3,7.3,0,0,1-3.3,4.5A9.8,9.8,0,0,1,328.5,286.2Z" transform="translate(0 0.3)"/><path d="M354.6,271.5c2,0,3.1,1.3,3.1,3.9s-1.3,7.6-3.7,16.1a106.3,106.3,0,0,0-3.6,17.7,134.4,134.4,0,0,0-1.3,15.2,100.9,100.9,0,0,0,.9,13.5c.1.9.2,1.5.2,1.9a5.2,5.2,0,0,1-1.4,3.6,4.3,4.3,0,0,1-3.1,1.5c-1.5,0-2.5-1-3.1-2.8s-.8-4.7-.8-8.8c0-9.2,1.1-20.7,3.3-34.3s4.1-21.7,5.4-24S353.2,271.5,354.6,271.5Z" transform="translate(0 0.3)"/><path d="M400.7,327.6c0,2.8-2.6,6.2-7.6,10.1s-10.3,6-15.7,6-8.1-1.3-10.5-3.9-3.7-6.3-3.7-11q0-11.9,8.1-22.5c5.5-7.1,11.4-10.7,17.8-10.7a6.9,6.9,0,0,1,5.2,2.1,6.6,6.6,0,0,1,2,4.8c0,4.3-2.1,8.3-6.4,12.2s-9.9,7.7-17,11.5a3.2,3.2,0,0,0-2.2,2.9,7.7,7.7,0,0,0,2,5.5,8.1,8.1,0,0,0,6,2.1c6.1,0,12.2-3.3,18.5-9.9,1-.9,1.7-1.3,2.1-1.3S400.7,326.2,400.7,327.6Zm-29.3-6.5c11.9-6.9,17.9-12.5,17.9-16.7,0-1.7-.8-2.5-2.3-2.5s-5.5,1.8-8.8,5.6A31.8,31.8,0,0,0,371.4,321.1Z" transform="translate(0 0.3)"/><path d="M418,325.2a21.7,21.7,0,0,0,1-2.1,80.9,80.9,0,0,1,5.3-10.1,61.2,61.2,0,0,1,5.3-7,27.3,27.3,0,0,1,5.3-5.1,14.6,14.6,0,0,1,4.3-2.4,10.6,10.6,0,0,1,3.8-.7,8.8,8.8,0,0,1,6,2.1,7.1,7.1,0,0,1,2.3,5.1,3.3,3.3,0,0,1-.9,2.3,2.8,2.8,0,0,1-2.5,1.1,4.3,4.3,0,0,1-3.2-1.6,4.5,4.5,0,0,0-3.2-1.5c-2.9,0-7,3.5-12.1,10.4a48.5,48.5,0,0,0-9.5,23c-.3,2.1-.8,3.6-1.6,4.3a5.4,5.4,0,0,1-3.3,1q-2.1,0-3-3t-.9-10.2c0-1.3,0-4.2.2-8.6a94.4,94.4,0,0,1,1-12.6c.1-.5.2-1.7.4-3.7a30.9,30.9,0,0,1,.7-4.4,5,5,0,0,1,1.9-2.3,4.8,4.8,0,0,1,2.9-1.1,2.7,2.7,0,0,1,2.4,1,3.2,3.2,0,0,1,.8,2.1,16.7,16.7,0,0,1-.9,4.5,44,44,0,0,0-1.1,4.5c-.1,1-.3,1.9-.5,3a62.1,62.1,0,0,0-.8,9.3v2.7Z" transform="translate(0 0.3)"/><path d="M207.2,379l-.3-2.1h-.1a6.2,6.2,0,0,1-5.1,2.5c-3.5,0-5.2-2.4-5.2-4.8,0-4.1,3.6-6.3,10.1-6.2V368c0-1.4-.3-3.9-3.8-3.9a8.1,8.1,0,0,0-4.4,1.3l-.7-2a10.6,10.6,0,0,1,5.6-1.5c5.1,0,6.4,3.5,6.4,6.8V375a24.2,24.2,0,0,0,.2,4Zm-.5-8.5c-3.3-.1-7.1.5-7.1,3.7a2.7,2.7,0,0,0,2.9,2.9,4,4,0,0,0,4-2.8,2.9,2.9,0,0,0,.2-.9Z" transform="translate(0 0.3)"/><path d="M214.6,366.8c0-1.7,0-3.2-.1-4.5h2.7l.2,2.7h0a6.3,6.3,0,0,1,5.6-3.1c2.3,0,6,1.4,6,7.1v10h-3.1v-9.6c0-2.7-1-5-3.9-5a4.3,4.3,0,0,0-4.1,3.1,3.2,3.2,0,0,0-.2,1.4V379h-3.1Z" transform="translate(0 0.3)"/><path d="M248.5,354.4v20.3c0,1.5,0,3.2.1,4.3h-2.7l-.2-2.9h0a6.3,6.3,0,0,1-5.8,3.3c-4.1,0-7.2-3.4-7.2-8.5s3.5-9,7.6-9a5.9,5.9,0,0,1,5.1,2.5h0v-10Zm-3.1,14.7a5.7,5.7,0,0,0-.1-1.3,4.5,4.5,0,0,0-4.4-3.5c-3.2,0-5.1,2.7-5.1,6.4s1.7,6.2,5,6.2a4.6,4.6,0,0,0,4.5-3.6,5.3,5.3,0,0,0,.1-1.3Z" transform="translate(0 0.3)"/><path d="M261,354.4h3v10.5h.1a5.8,5.8,0,0,1,2.2-2.2,6.5,6.5,0,0,1,3.1-.8c2.3,0,5.9,1.4,5.9,7.1v10h-3.1v-9.6c0-2.7-1-5-3.9-5a4.4,4.4,0,0,0-4.1,3.1,5.2,5.2,0,0,0-.2,1.4V379h-3Z" transform="translate(0 0.3)"/><path d="M283.7,357.5a1.9,1.9,0,1,1-3.8,0,1.9,1.9,0,0,1,1.9-1.9A1.8,1.8,0,0,1,283.7,357.5ZM280.3,379V362.3h3V379Z" transform="translate(0 0.3)"/><path d="M288,375.9a7.9,7.9,0,0,0,4,1.2c2.3,0,3.3-1.1,3.3-2.5s-.9-2.2-3.1-3.1-4.5-2.7-4.5-4.7,2.2-4.9,5.8-4.9a9.6,9.6,0,0,1,4.2,1l-.8,2.2a6.6,6.6,0,0,0-3.4-.9c-1.8,0-2.9,1-2.9,2.2s1.1,2.1,3.3,2.9,4.4,2.5,4.4,5-2.3,5.1-6.3,5.1a9.7,9.7,0,0,1-4.8-1.2Z" transform="translate(0 0.3)"/><path d="M309.9,379V364.6h-2.4v-2.3h2.4v-.8c0-2.4.5-4.5,2-5.9a5.6,5.6,0,0,1,4.1-1.5,8.9,8.9,0,0,1,2.6.4l-.4,2.4a5,5,0,0,0-2-.4c-2.6,0-3.3,2.3-3.3,4.9v.9H317v2.3h-4.1V379Z" transform="translate(0 0.3)"/><path d="M319.8,367.5c0-2-.1-3.7-.2-5.2h2.7v3.2h.1a5.2,5.2,0,0,1,4.7-3.6h.9v2.9H327c-2.1,0-3.7,1.6-4.1,3.9,0,.4-.1.9-.1,1.4V379h-3Z" transform="translate(0 0.3)"/><path d="M334.7,357.5a1.9,1.9,0,1,1-3.8,0,1.9,1.9,0,0,1,1.9-1.9A1.8,1.8,0,0,1,334.7,357.5ZM331.3,379V362.3h3V379Z" transform="translate(0 0.3)"/><path d="M341.1,371.2c.1,4.1,2.7,5.8,5.8,5.8a11.2,11.2,0,0,0,4.7-.9l.5,2.2a13.2,13.2,0,0,1-5.6,1.1c-5.2,0-8.3-3.4-8.3-8.5s3-9,7.9-9,7,4.8,7,7.9c0,.6-.1,1.1-.1,1.4Zm9-2.2c.1-1.9-.8-4.9-4.2-4.9s-4.5,2.8-4.7,4.9Z" transform="translate(0 0.3)"/><path d="M356.9,366.8c0-1.7-.1-3.2-.2-4.5h2.7l.2,2.7h.1a6.1,6.1,0,0,1,5.6-3.1c2.3,0,5.9,1.4,5.9,7.1v10h-3v-9.6c0-2.7-1.1-5-3.9-5a4.4,4.4,0,0,0-4.2,3.1,5.9,5.9,0,0,0-.2,1.4V379h-3Z" transform="translate(0 0.3)"/><path d="M390.7,354.4v20.3c0,1.5.1,3.2.2,4.3h-2.8v-2.9h-.1a6.1,6.1,0,0,1-5.7,3.3c-4.1,0-7.2-3.4-7.2-8.5s3.4-9,7.5-9a5.8,5.8,0,0,1,5.1,2.5h.1v-10Zm-3,14.7a5.9,5.9,0,0,0-.2-1.3,4.4,4.4,0,0,0-4.4-3.5c-3.1,0-5,2.7-5,6.4s1.6,6.2,5,6.2a4.5,4.5,0,0,0,4.4-3.6,5.1,5.1,0,0,0,.2-1.3Z" transform="translate(0 0.3)"/><path d="M395.4,375.9a7.9,7.9,0,0,0,4,1.2c2.3,0,3.3-1.1,3.3-2.5s-.8-2.2-3.1-3.1-4.5-2.7-4.5-4.7,2.2-4.9,5.8-4.9a8.9,8.9,0,0,1,4.2,1l-.8,2.2a6.6,6.6,0,0,0-3.4-.9c-1.8,0-2.8,1-2.8,2.2s1,2.1,3.2,2.9,4.4,2.5,4.4,5-2.3,5.1-6.3,5.1a9.7,9.7,0,0,1-4.8-1.2Z" transform="translate(0 0.3)"/></svg>